HIERARCHY
ROOT Hips
{
	OFFSET 0.000000 0.000000 0.000000
	CHANNELS 6 Xposition Yposition Zposition Zrotation Yrotation Xrotation 
	JOINT LHipJoint
	{
		OFFSET 0.000000 0.000000 0.000000
		CHANNELS 3 Zrotation Yrotation Xrotation
		JOINT LeftUpLeg
		{
			OFFSET 1.363060 -1.794630 0.839290
			CHANNELS 3 Zrotation Yrotation Xrotation
			JOINT LeftLeg
			{
				OFFSET 2.448110 -6.726130 0.000000
				CHANNELS 3 Zrotation Yrotation Xrotation
				JOINT LeftFoot
				{
					OFFSET 2.562200 -7.039590 0.000000
					CHANNELS 3 Zrotation Yrotation Xrotation
					JOINT LeftToeBase
					{
						OFFSET 0.157640 -0.433110 2.322550
						CHANNELS 3 Zrotation Yrotation Xrotation
						End Site
						{
							OFFSET 0.000000 0.000000 0.000000
						}
					}
				}
			}
		}
	}
	JOINT RHipJoint
	{
		OFFSET 0.000000 0.000000 0.000000
		CHANNELS 3 Zrotation Yrotation Xrotation
		JOINT RightUpLeg
		{
			OFFSET -1.305520 -1.794630 0.839290
			CHANNELS 3 Zrotation Yrotation Xrotation
			JOINT RightLeg
			{
				OFFSET -2.542530 -6.985550 0.000000
				CHANNELS 3 Zrotation Yrotation Xrotation
				JOINT RightFoot
				{
					OFFSET -2.568260 -7.056230 0.000000
					CHANNELS 3 Zrotation Yrotation Xrotation
					JOINT RightToeBase
					{
						OFFSET -0.164730 -0.452590 2.363150
						CHANNELS 3 Zrotation Yrotation Xrotation
						End Site
						{
							OFFSET 0.000000 0.000000 0.000000
						}
					}
				}
			}
		}
	}
	JOINT LowerBack
	{
		OFFSET 0.000000 0.000000 0.000000
		CHANNELS 3 Zrotation Yrotation Xrotation
		JOINT Spine
		{
			OFFSET 0.028270 2.035590 -0.193380
			CHANNELS 3 Zrotation Yrotation Xrotation
			JOINT Spine1
			{
				OFFSET 0.056720 2.048850 -0.042750
				CHANNELS 3 Zrotation Yrotation Xrotation
				JOINT Neck
				{
					OFFSET 0.000000 0.000000 0.000000
					CHANNELS 3 Zrotation Yrotation Xrotation
					JOINT Neck1
					{
						OFFSET -0.054170 1.746240 0.172020
						CHANNELS 3 Zrotation Yrotation Xrotation
						JOINT Head
						{
							OFFSET 0.104070 1.761360 -0.123970
							CHANNELS 3 Zrotation Yrotation Xrotation
							End Site
							{
								OFFSET 0.000000 0.000000 0.000000
							}
						}
					}
				}
				JOINT LeftShoulder
				{
					OFFSET 0.000000 0.000000 0.000000
					CHANNELS 3 Zrotation Yrotation Xrotation
					JOINT LeftArm
					{
						OFFSET 3.362410 1.200890 -0.311210
						CHANNELS 3 Zrotation Yrotation Xrotation
						JOINT LeftForeArm
						{
							OFFSET 4.983000 -0.000000 -0.000000
							CHANNELS 3 Zrotation Yrotation Xrotation
							JOINT LeftHand
							{
								OFFSET 3.483560 -0.000000 -0.000000
								CHANNELS 3 Zrotation Yrotation Xrotation
								JOINT LeftFingerBase
								{
									OFFSET 0.000000 0.000000 0.000000
									CHANNELS 3 Zrotation Yrotation Xrotation
									JOINT LeftHandIndex1
									{
										OFFSET 0.715260 -0.000000 -0.000000
										CHANNELS 3 Zrotation Yrotation Xrotation
										End Site
										{
											OFFSET 0.000000 0.000000 0.000000
										}
									}
								}
								JOINT LThumb
								{
									OFFSET 0.000000 0.000000 0.000000
									CHANNELS 3 Zrotation Yrotation Xrotation
									End Site
									{
										OFFSET 0.000000 0.000000 0.000000
									}
								}
							}
						}
					}
				}
				JOINT RightShoulder
				{
					OFFSET 0.000000 0.000000 0.000000
					CHANNELS 3 Zrotation Yrotation Xrotation
					JOINT RightArm
					{
						OFFSET -3.136600 1.374050 -0.404650
						CHANNELS 3 Zrotation Yrotation Xrotation
						JOINT RightForeArm
						{
							OFFSET -5.241900 -0.000000 -0.000000
							CHANNELS 3 Zrotation Yrotation Xrotation
							JOINT RightHand
							{
								OFFSET -3.444170 -0.000000 -0.000000
								CHANNELS 3 Zrotation Yrotation Xrotation
								JOINT RightFingerBase
								{
									OFFSET 0.000000 0.000000 0.000000
									CHANNELS 3 Zrotation Yrotation Xrotation
									JOINT RightHandIndex1
									{
										OFFSET -0.622530 -0.000000 -0.000000
										CHANNELS 3 Zrotation Yrotation Xrotation
										End Site
										{
											OFFSET 0.000000 0.000000 0.000000
										}
									}
								}
								JOINT RThumb
								{
									OFFSET 0.000000 0.000000 0.000000
									CHANNELS 3 Zrotation Yrotation Xrotation
									End Site
									{
										OFFSET 0.000000 0.000000 0.000000
									}
								}
							}
						}
					}
				}
			}
		}
	}
}
MOTION
Frames: 10
Frame Time: 0.016667
-1.810222 17.902336 24.080498 1.081875 -4.907157 9.491450 -0.604375 14.614769 -1.360942 -23.801081 -4.383406 -7.585918 -8.510272 -7.381167 -17.039007 2.119120 9.479575 26.529950 0.000000 0.000000 0.000000 6.203802 -17.291706 -1.277302 21.010840 21.724048 -15.846919 -10.094844 -13.619621 73.233565 20.149073 -13.603513 -15.085014 0.000000 0.000000 0.000000 -4.256330 1.320695 9.169436 3.439173 0.779419 -0.529695 1.213083 1.355778 -8.951663 -0.050957 0.117904 -1.880223 2.460384 0.021375 2.343750 0.000000 0.000000 0.000000 -0.756433 14.280505 10.689907 -70.553873 -6.036971 7.261949 -169.237915 -88.615461 -179.709719 4.051805 -10.240665 0.142981 4.075221 -10.232348 0.000000 0.000000 0.000000 0.000000 0.000000 0.000000 0.000000 2.559977 -15.357909 7.681381 56.339028 4.327200 18.648099 23.173040 64.655150 0.252222 0.017774 8.421431 0.125336 0.011571 8.424476 0.000000 0.000000 0.000000 0.000000 0.000000 0.000000 0.000000 
-1.771147 17.967549 24.322886 1.281217 -4.837535 9.549734 -1.262663 14.665563 -1.102051 -23.626384 -4.658487 -7.940953 -8.051128 -6.758046 -15.168228 1.673121 8.262738 23.582203 0.000000 0.000000 0.000000 5.815285 -17.208107 -0.378302 19.927089 21.250505 -16.006340 -9.239027 -13.936753 71.922290 19.737586 -13.813623 -13.486479 0.000000 0.000000 0.000000 -3.137137 1.414846 8.135598 2.203412 0.662551 1.165672 0.722033 1.295774 -9.465904 0.257537 0.076029 -1.865550 2.436224 0.017600 2.352913 0.000000 0.000000 0.000000 -0.863886 14.256101 10.417516 -69.999542 -6.011348 8.636221 -170.370414 -89.281523 -179.697994 4.088033 -10.611806 0.148534 4.114432 -10.602758 0.000000 0.000000 0.000000 0.000000 0.000000 0.000000 0.000000 1.824675 -15.354408 7.608363 57.921439 4.309582 18.916604 23.136148 66.058651 0.283109 0.032564 9.263574 0.140559 0.025011 9.267016 0.000000 0.000000 0.000000 0.000000 0.000000 0.000000 0.000000 
-1.750079 18.019386 24.541121 1.450162 -4.542282 9.572420 -1.707197 14.524306 -1.055599 -23.534179 -4.822733 -8.030471 -7.609538 -6.217107 -13.433686 1.331103 7.125395 20.998664 0.000000 0.000000 0.000000 5.587417 -16.815385 0.241155 18.847315 20.530706 -15.896237 -8.202118 -14.496305 70.581127 19.547819 -14.110510 -12.332564 0.000000 0.000000 0.000000 -2.365889 1.441016 7.532271 1.312144 0.551578 2.234904 0.307444 1.212173 -9.683812 0.580348 0.040169 -1.891628 2.449344 0.016118 2.363905 0.000000 0.000000 0.000000 -0.752513 14.080381 10.207412 -69.611339 -5.943125 10.091207 8.215008 -89.929572 0.320478 4.053648 -10.987339 0.157489 4.082318 -10.978038 0.000000 0.000000 0.000000 0.000000 0.000000 0.000000 0.000000 0.928265 -15.236960 7.542914 59.659636 4.225525 19.343651 22.755073 67.981882 0.315586 0.003674 10.100204 0.156531 -0.005458 10.104006 0.000000 0.000000 0.000000 0.000000 0.000000 0.000000 0.000000 
-1.729900 18.069430 24.751500 1.662407 -4.460811 9.468796 -1.996439 14.182125 -1.248357 -23.642456 -4.615107 -7.573255 -7.015132 -5.752548 -12.149365 1.074192 6.292405 19.045919 0.000000 0.000000 0.000000 5.389123 -16.368197 0.882516 17.754967 19.807344 -15.687864 -7.301202 -14.933093 69.259417 19.233673 -14.319613 -11.075084 0.000000 0.000000 0.000000 -1.740159 1.510595 7.056364 0.486986 0.503427 3.250191 -0.054844 1.174480 -9.878023 0.838759 0.016375 -1.903998 2.482358 0.016882 2.356194 0.000000 0.000000 0.000000 -0.663318 13.934066 10.031600 -69.255966 -5.922345 11.313069 6.959728 -89.234706 0.336306 4.010234 -11.306429 0.165151 4.040864 -11.296999 0.000000 0.000000 0.000000 0.000000 0.000000 0.000000 0.000000 0.185003 -15.128998 7.445307 61.136537 4.164922 19.600706 22.501084 69.441363 0.345309 -0.017550 10.822208 0.171133 -0.028092 10.826343 0.000000 0.000000 0.000000 0.000000 0.000000 0.000000 0.000000 
-1.692963 18.129659 24.971665 1.821172 -4.508255 9.505203 -2.877513 14.016698 -0.879897 -23.089181 -4.788634 -7.888512 -6.468145 -5.354888 -10.999048 0.843957 5.546772 17.237240 0.000000 0.000000 0.000000 5.288890 -16.131992 1.686753 16.526405 19.258845 -15.793686 -6.470589 -15.154185 67.910583 18.748968 -14.441195 -9.523324 0.000000 0.000000 0.000000 -0.697548 1.625136 5.962317 -0.685711 0.485012 4.973209 -0.378783 1.133164 -10.388278 1.055485 -0.002926 -1.897574 2.480990 0.021219 2.257856 0.000000 0.000000 0.000000 -0.827861 13.853227 9.856435 -68.768596 -5.904577 12.349380 5.971980 -88.642107 0.350306 3.982853 -11.562588 0.171928 4.015145 -11.553042 0.000000 0.000000 0.000000 0.000000 0.000000 0.000000 0.000000 -0.223473 -15.156925 7.302420 62.179501 4.102961 19.741515 22.364315 70.411591 0.372061 -0.031935 11.424816 0.184275 -0.043611 11.429254 0.000000 0.000000 0.000000 0.000000 0.000000 0.000000 0.000000 
-1.660493 18.184668 25.179686 1.960408 -4.574897 9.556037 -3.726576 13.788254 -0.559932 -22.504399 -4.898716 -8.137741 -5.956189 -5.006468 -10.036405 0.664652 4.925750 15.692549 0.000000 0.000000 0.000000 5.284815 -15.831790 2.389168 15.323509 18.696621 -15.852523 -5.682442 -15.360261 66.618526 18.316610 -14.595780 -8.039947 0.000000 0.000000 0.000000 0.215081 1.720184 5.030496 -1.769323 0.477615 6.440368 -0.693592 1.075889 -10.711353 1.251199 -0.011991 -1.925831 2.563064 0.026896 2.208855 0.000000 0.000000 0.000000 -0.867693 13.834033 9.647553 -68.384155 -6.021548 13.051596 5.357511 -88.260726 0.359151 3.978356 -11.734296 0.176183 4.011942 -11.724587 0.000000 0.000000 0.000000 0.000000 0.000000 0.000000 0.000000 -0.725982 -15.201630 7.232765 63.315342 4.246662 19.304882 23.053727 70.038605 0.397664 0.055638 12.016756 0.196887 0.043616 12.021627 0.000000 0.000000 0.000000 0.000000 0.000000 0.000000 0.000000 
-1.633215 18.233846 25.375158 2.068722 -4.665482 9.635732 -4.513037 13.495664 -0.310439 -21.915515 -4.935915 -8.297703 -5.477189 -4.710905 -9.275947 0.528436 4.420861 14.382192 0.000000 0.000000 0.000000 5.379122 -15.463770 2.980798 14.161910 18.127985 -15.865930 -4.944846 -15.554853 65.395435 17.936459 -14.777906 -6.639743 0.000000 0.000000 0.000000 0.952715 1.778465 4.310604 -2.675837 0.462594 7.543552 -1.030111 1.002750 -10.825681 1.429371 -0.014118 -1.985866 2.720629 0.032502 2.224806 0.000000 0.000000 0.000000 -0.796389 13.910767 9.402229 -68.100672 -6.256108 13.411048 5.163843 -88.115947 0.362536 4.002630 -11.817631 0.177774 4.037092 -11.807679 0.000000 0.000000 0.000000 0.000000 0.000000 0.000000 0.000000 -1.341053 -15.267770 7.262257 64.533758 4.633536 18.206285 24.632908 68.140311 0.421271 0.259714 12.591688 0.208586 0.248543 12.597108 0.000000 0.000000 0.000000 0.000000 0.000000 0.000000 0.000000 
-1.609135 18.278909 25.560924 2.198963 -4.747596 9.637878 -5.227184 13.260697 -0.061960 -21.385824 -4.966645 -8.448690 -5.092613 -4.369114 -8.402758 0.411758 3.945488 13.133128 0.000000 0.000000 0.000000 5.491639 -15.089823 3.563312 13.013127 17.521352 -15.803169 -4.239440 -15.745434 64.179037 17.508986 -14.893353 -5.301179 0.000000 0.000000 0.000000 1.620888 1.834738 3.516784 -3.541236 0.462070 8.807557 -1.173675 0.924075 -11.005113 1.594893 -0.019124 -2.141272 2.769663 0.042566 2.100561 0.000000 0.000000 0.000000 -0.742865 13.830755 9.239045 -67.842877 -6.294581 14.115089 4.279863 -87.619544 0.370047 3.974254 -12.037997 0.181307 4.010571 -12.027889 0.000000 0.000000 0.000000 0.000000 0.000000 0.000000 0.000000 -1.734798 -15.288816 7.234872 65.352335 4.881173 17.578259 25.370601 67.230011 0.437429 0.350124 12.972703 0.216583 0.339356 12.978416 0.000000 0.000000 0.000000 0.000000 0.000000 0.000000 0.000000 
-1.589023 18.319432 25.736665 2.360134 -4.818768 9.543369 -5.856156 13.089957 0.188229 -20.936920 -4.989095 -8.574266 -4.793863 -3.983295 -7.410237 0.310789 3.490105 11.936833 0.000000 0.000000 0.000000 5.609357 -14.718593 4.152405 11.881117 16.881424 -15.660069 -3.568565 -15.936130 62.975813 17.030294 -14.932639 -4.032591 0.000000 0.000000 0.000000 2.228141 1.900444 2.607030 -4.409344 0.486559 10.338957 -1.077521 0.841759 -11.280930 1.748931 -0.025859 -2.414788 2.697226 0.058113 1.811976 0.000000 0.000000 0.000000 -0.694282 13.568539 9.153870 -67.627686 -6.146206 15.191487 2.571144 -86.710708 0.382120 3.873208 -12.403456 0.186984 3.912400 -12.393416 0.000000 0.000000 0.000000 0.000000 0.000000 0.000000 0.000000 -1.875222 -15.255000 7.139808 65.742109 4.950326 17.532379 25.192688 67.524456 0.445125 0.312266 13.142491 0.220350 0.301040 13.148241 0.000000 0.000000 0.000000 0.000000 0.000000 0.000000 0.000000 
-1.572856 18.355768 25.903423 2.569840 -4.840057 9.285608 -6.408066 12.992717 0.481251 -20.567264 -5.010043 -8.655692 -4.573367 -3.555267 -6.265539 0.220460 3.033203 10.781234 0.000000 0.000000 0.000000 5.699266 -14.380203 4.809570 10.757915 16.216173 -15.414334 -2.871292 -16.138866 61.762881 16.561630 -14.932734 -2.885726 0.000000 0.000000 0.000000 2.846216 1.980169 1.405395 -5.386494 0.553191 12.530577 -0.804092 0.752439 -11.705904 2.070044 -0.050996 -3.001719 2.451856 0.082771 1.249628 0.000000 0.000000 0.000000 -0.601536 13.096019 9.099886 -67.467022 -5.901793 16.535095 0.073659 -85.387428 0.400252 3.673690 -12.848366 0.195634 3.715793 -12.838982 0.000000 0.000000 0.000000 0.000000 0.000000 0.000000 0.000000 -2.055802 -15.083440 6.990362 66.141555 4.939055 17.825051 24.393604 68.774243 0.449573 0.176764 13.253545 0.222449 0.164138 13.259158 0.000000 0.000000 0.000000 0.000000 0.000000 0.000000 0.000000 
